<svg id="my-svg" width="100%" xmlns="http://www.w3.org/2000/svg" xmlns:xlink="http://www.w3.org/1999/xlink" class="classDiagram" style="max-width: 2271.06px; background-color: white;" viewBox="0 0 2271.0625 800" role="graphics-document document" aria-roledescription="class"><style>#my-svg{font-family:"trebuchet ms",verdana,arial,sans-serif;font-size:16px;fill:#333;}@keyframes edge-animation-frame{from{stroke-dashoffset:0;}}@keyframes dash{to{stroke-dashoffset:0;}}#my-svg .edge-animation-slow{stroke-dasharray:9,5!important;stroke-dashoffset:900;animation:dash 50s linear infinite;stroke-linecap:round;}#my-svg .edge-animation-fast{stroke-dasharray:9,5!important;stroke-dashoffset:900;animation:dash 20s linear infinite;stroke-linecap:round;}#my-svg .error-icon{fill:#552222;}#my-svg .error-text{fill:#552222;stroke:#552222;}#my-svg .edge-thickness-normal{stroke-width:1px;}#my-svg .edge-thickness-thick{stroke-width:3.5px;}#my-svg .edge-pattern-solid{stroke-dasharray:0;}#my-svg .edge-thickness-invisible{stroke-width:0;fill:none;}#my-svg .edge-pattern-dashed{stroke-dasharray:3;}#my-svg .edge-pattern-dotted{stroke-dasharray:2;}#my-svg .marker{fill:#333333;stroke:#333333;}#my-svg .marker.cross{stroke:#333333;}#my-svg svg{font-family:"trebuchet ms",verdana,arial,sans-serif;font-size:16px;}#my-svg p{margin:0;}#my-svg g.classGroup text{fill:#9370DB;stroke:none;font-family:"trebuchet ms",verdana,arial,sans-serif;font-size:10px;}#my-svg g.classGroup text .title{font-weight:bolder;}#my-svg .cluster-label text{fill:#333;}#my-svg .cluster-label span{color:#333;}#my-svg .cluster-label span p{background-color:transparent;}#my-svg .cluster rect{fill:#ffffde;stroke:#aaaa33;stroke-width:1px;}#my-svg .cluster text{fill:#333;}#my-svg .cluster span{color:#333;}#my-svg .nodeLabel,#my-svg .edgeLabel{color:#131300;}#my-svg .noteLabel .nodeLabel,#my-svg .noteLabel .edgeLabel{color:black;}#my-svg .edgeLabel .label rect{fill:#ECECFF;}#my-svg .label text{fill:#131300;}#my-svg .labelBkg{background:#ECECFF;}#my-svg .edgeLabel .label span{background:#ECECFF;}#my-svg .classTitle{font-weight:bolder;}#my-svg .node rect,#my-svg .node circle,#my-svg .node ellipse,#my-svg .node polygon,#my-svg .node path{fill:#ECECFF;stroke:#9370DB;stroke-width:1;}#my-svg .divider{stroke:#9370DB;stroke-width:1;}#my-svg g.clickable{cursor:pointer;}#my-svg g.classGroup rect{fill:#ECECFF;stroke:#9370DB;}#my-svg g.classGroup line{stroke:#9370DB;stroke-width:1;}#my-svg .classLabel .box{stroke:none;stroke-width:0;fill:#ECECFF;opacity:0.5;}#my-svg .classLabel .label{fill:#9370DB;font-size:10px;}#my-svg .relation{stroke:#333333;stroke-width:1;fill:none;}#my-svg .dashed-line{stroke-dasharray:3;}#my-svg .dotted-line{stroke-dasharray:1 2;}#my-svg [id$="-compositionStart"],#my-svg .composition{fill:#333333!important;stroke:#333333!important;stroke-width:1;}#my-svg [id$="-compositionEnd"],#my-svg .composition{fill:#333333!important;stroke:#333333!important;stroke-width:1;}#my-svg [id$="-dependencyStart"],#my-svg .dependency{fill:#333333!important;stroke:#333333!important;stroke-width:1;}#my-svg [id$="-dependencyEnd"],#my-svg .dependency{fill:#333333!important;stroke:#333333!important;stroke-width:1;}#my-svg [id$="-extensionStart"],#my-svg .extension{fill:transparent!important;stroke:#333333!important;stroke-width:1;}#my-svg [id$="-extensionEnd"],#my-svg .extension{fill:transparent!important;stroke:#333333!important;stroke-width:1;}#my-svg [id$="-aggregationStart"],#my-svg .aggregation{fill:transparent!important;stroke:#333333!important;stroke-width:1;}#my-svg [id$="-aggregationEnd"],#my-svg .aggregation{fill:transparent!important;stroke:#333333!important;stroke-width:1;}#my-svg [id$="-lollipopStart"],#my-svg .lollipop{fill:#ECECFF!important;stroke:#333333!important;stroke-width:1;}#my-svg [id$="-lollipopEnd"],#my-svg .lollipop{fill:#ECECFF!important;stroke:#333333!important;stroke-width:1;}#my-svg .edgeTerminals{font-size:11px;line-height:initial;}#my-svg .classTitleText{text-anchor:middle;font-size:18px;fill:#333;}#my-svg .edgeLabel[data-look="neo"]{background-color:rgba(232,232,232, 0.8);text-align:center;}#my-svg .edgeLabel[data-look="neo"] p{background-color:rgba(232,232,232, 0.8);}#my-svg .edgeLabel[data-look="neo"] rect{opacity:0.5;background-color:rgba(232,232,232, 0.8);fill:rgba(232,232,232, 0.8);}#my-svg .label-icon{display:inline-block;height:1em;overflow:visible;vertical-align:-0.125em;}#my-svg .node .label-icon path{fill:currentColor;stroke:revert;stroke-width:revert;}#my-svg .node .neo-node{stroke:#9370DB;}#my-svg [data-look="neo"].node rect,#my-svg [data-look="neo"].cluster rect,#my-svg [data-look="neo"].node polygon{stroke:#9370DB;filter:drop-shadow(1px 2px 2px rgba(185, 185, 185, 1));}#my-svg [data-look="neo"].node path{stroke:#9370DB;stroke-width:1px;}#my-svg [data-look="neo"].node .outer-path{filter:drop-shadow(1px 2px 2px rgba(185, 185, 185, 1));}#my-svg [data-look="neo"].node .neo-line path{stroke:#9370DB;filter:none;}#my-svg [data-look="neo"].node circle{stroke:#9370DB;filter:drop-shadow(1px 2px 2px rgba(185, 185, 185, 1));}#my-svg [data-look="neo"].node circle .state-start{fill:#000000;}#my-svg [data-look="neo"].icon-shape .icon{fill:#9370DB;filter:drop-shadow(1px 2px 2px rgba(185, 185, 185, 1));}#my-svg [data-look="neo"].icon-shape .icon-neo path{stroke:#9370DB;filter:drop-shadow(1px 2px 2px rgba(185, 185, 185, 1));}#my-svg :root{--mermaid-font-family:"trebuchet ms",verdana,arial,sans-serif;}</style><g><defs><marker id="my-svg_class-aggregationStart" class="marker aggregation class" refX="18" refY="7" markerWidth="190" markerHeight="240" orient="auto"><path d="M 18,7 L9,13 L1,7 L9,1 Z"/></marker></defs><defs><marker id="my-svg_class-aggregationEnd" class="marker aggregation class" refX="1" refY="7" markerWidth="20" markerHeight="28" orient="auto"><path d="M 18,7 L9,13 L1,7 L9,1 Z"/></marker></defs><defs><marker id="my-svg_class-aggregationStart-margin" class="marker aggregation class" refX="15" refY="7" markerWidth="190" markerHeight="240" orient="auto" markerUnits="userSpaceOnUse"><path d="M 18,7 L9,13 L1,7 L9,1 Z" style="stroke-width: 2;"/></marker></defs><defs><marker id="my-svg_class-aggregationEnd-margin" class="marker aggregation class" refX="1" refY="7" markerWidth="20" markerHeight="28" orient="auto" markerUnits="userSpaceOnUse"><path d="M 18,7 L9,13 L1,7 L9,1 Z" style="stroke-width: 2;"/></marker></defs><defs><marker id="my-svg_class-extensionStart" class="marker extension class" refX="18" refY="7" markerWidth="20" markerHeight="28" orient="auto" markerUnits="userSpaceOnUse"><path d="M 1,7 L18,13 V 1 Z"/></marker></defs><defs><marker id="my-svg_class-extensionEnd" class="marker extension class" refX="1" refY="7" markerWidth="20" markerHeight="28" orient="auto"><path d="M 1,1 V 13 L18,7 Z"/></marker></defs><marker id="my-svg_class-extensionStart-margin" class="marker extension class" refX="18" refY="7" markerWidth="20" markerHeight="28" orient="auto" markerUnits="userSpaceOnUse" viewBox="0 0 20 14"><polygon points="10,7 18,13 18,1" style="stroke-width: 2; stroke-dasharray: 0;"/></marker><defs><marker id="my-svg_class-extensionEnd-margin" class="marker extension class" refX="9" refY="7" markerWidth="20" markerHeight="28" orient="auto" markerUnits="userSpaceOnUse" viewBox="0 0 20 14"><polygon points="10,1 10,13 18,7" style="stroke-width: 2; stroke-dasharray: 0;"/></marker></defs><defs><marker id="my-svg_class-compositionStart" class="marker composition class" refX="18" refY="7" markerWidth="190" markerHeight="240" orient="auto"><path d="M 18,7 L9,13 L1,7 L9,1 Z"/></marker></defs><defs><marker id="my-svg_class-compositionEnd" class="marker composition class" refX="1" refY="7" markerWidth="20" markerHeight="28" orient="auto"><path d="M 18,7 L9,13 L1,7 L9,1 Z"/></marker></defs><defs><marker id="my-svg_class-compositionStart-margin" class="marker composition class" refX="15" refY="7" markerWidth="190" markerHeight="240" orient="auto" markerUnits="userSpaceOnUse"><path viewBox="0 0 15 15" d="M 18,7 L9,13 L1,7 L9,1 Z" style="stroke-width: 0;"/></marker></defs><defs><marker id="my-svg_class-compositionEnd-margin" class="marker composition class" refX="3.5" refY="7" markerWidth="20" markerHeight="28" orient="auto" markerUnits="userSpaceOnUse"><path d="M 18,7 L9,13 L1,7 L9,1 Z" style="stroke-width: 0;"/></marker></defs><defs><marker id="my-svg_class-dependencyStart" class="marker dependency class" refX="6" refY="7" markerWidth="190" markerHeight="240" orient="auto"><path d="M 5,7 L9,13 L1,7 L9,1 Z"/></marker></defs><defs><marker id="my-svg_class-dependencyEnd" class="marker dependency class" refX="13" refY="7" markerWidth="20" markerHeight="28" orient="auto"><path d="M 18,7 L9,13 L14,7 L9,1 Z"/></marker></defs><defs><marker id="my-svg_class-dependencyStart-margin" class="marker dependency class" refX="4" refY="7" markerWidth="190" markerHeight="240" orient="auto" markerUnits="userSpaceOnUse"><path d="M 5,7 L9,13 L1,7 L9,1 Z" style="stroke-width: 0;"/></marker></defs><defs><marker id="my-svg_class-dependencyEnd-margin" class="marker dependency class" refX="16" refY="7" markerWidth="20" markerHeight="28" orient="auto" markerUnits="userSpaceOnUse"><path d="M 18,7 L9,13 L14,7 L9,1 Z" style="stroke-width: 0;"/></marker></defs><defs><marker id="my-svg_class-lollipopStart" class="marker lollipop class" refX="13" refY="7" markerWidth="190" markerHeight="240" orient="auto"><circle fill="transparent" cx="7" cy="7" r="6"/></marker></defs><defs><marker id="my-svg_class-lollipopEnd" class="marker lollipop class" refX="1" refY="7" markerWidth="190" markerHeight="240" orient="auto"><circle fill="transparent" cx="7" cy="7" r="6"/></marker></defs><defs><marker id="my-svg_class-lollipopStart-margin" class="marker lollipop class" refX="13" refY="7" markerWidth="190" markerHeight="240" orient="auto" markerUnits="userSpaceOnUse"><circle fill="transparent" cx="7" cy="7" r="6" stroke-width="2"/></marker></defs><defs><marker id="my-svg_class-lollipopEnd-margin" class="marker lollipop class" refX="1" refY="7" markerWidth="190" markerHeight="240" orient="auto" markerUnits="userSpaceOnUse"><circle fill="transparent" cx="7" cy="7" r="6" stroke-width="2"/></marker></defs><g class="root"><g class="clusters"/><g class="edgePaths"><path d="M804.735,181.867L694.764,200.056C584.793,218.244,364.852,254.622,254.881,290.478C144.91,326.333,144.91,361.667,144.91,379.333L144.91,397" id="my-svg-id_IPlayerState_SmallState_1" class="edge-thickness-normal edge-pattern-solid relation" style=";;;" data-edge="true" data-et="edge" data-id="id_IPlayerState_SmallState_1" data-points="W3sieCI6ODIxLjc1MzkwNjI1LCJ5IjoxNzkuMDUxODE1ODk4NTAwMjh9LHsieCI6MTQ0LjkxMDE1NjI1LCJ5IjoyOTF9LHsieCI6MTQ0LjkxMDE1NjI1LCJ5IjozOTd9XQ==" data-look="classic" marker-start="url(#my-svg_class-extensionStart)"/><path d="M805.015,207.484L749.096,221.404C693.178,235.323,581.341,263.161,525.422,294.747C469.504,326.333,469.504,361.667,469.504,379.333L469.504,397" id="my-svg-id_IPlayerState_SuperState_2" class="edge-thickness-normal edge-pattern-solid relation" style=";;;" data-edge="true" data-et="edge" data-id="id_IPlayerState_SuperState_2" data-points="W3sieCI6ODIxLjc1MzkwNjI1LCJ5IjoyMDMuMzE3NDcxODkzMDQxNn0seyJ4Ijo0NjkuNTAzOTA2MjUsInkiOjI5MX0seyJ4Ijo0NjkuNTAzOTA2MjUsInkiOjM5N31d" data-look="classic" marker-start="url(#my-svg_class-extensionStart)"/><path d="M850.368,261.703L840.583,266.585C830.799,271.468,811.229,281.234,801.445,303.784C791.66,326.333,791.66,361.667,791.66,379.333L791.66,397" id="my-svg-id_IPlayerState_FireState_3" class="edge-thickness-normal edge-pattern-solid relation" style=";;;" data-edge="true" data-et="edge" data-id="id_IPlayerState_FireState_3" data-points="W3sieCI6ODY1LjgwMjg4MDg1OTM3NSwieSI6MjU0fSx7IngiOjc5MS42NjAxNTYyNSwieSI6MjkxfSx7IngiOjc5MS42NjAxNTYyNSwieSI6Mzk3fV0=" data-look="classic" marker-start="url(#my-svg_class-extensionStart)"/><path d="M1112.277,271.25L1112.277,274.542C1112.277,277.833,1112.277,284.417,1112.277,305.375C1112.277,326.333,1112.277,361.667,1112.277,379.333L1112.277,397" id="my-svg-id_IPlayerState_CapeState_4" class="edge-thickness-normal edge-pattern-solid relation" style=";;;" data-edge="true" data-et="edge" data-id="id_IPlayerState_CapeState_4" data-points="W3sieCI6MTExMi4yNzczNDM3NSwieSI6MjU0fSx7IngiOjExMTIuMjc3MzQzNzUsInkiOjI5MX0seyJ4IjoxMTEyLjI3NzM0Mzc1LCJ5IjozOTd9XQ==" data-look="classic" marker-start="url(#my-svg_class-extensionStart)"/><path d="M1374.336,261.699L1384.127,266.582C1393.919,271.466,1413.502,281.233,1423.294,303.783C1433.086,326.333,1433.086,361.667,1433.086,379.333L1433.086,397" id="my-svg-id_IPlayerState_MiniState_5" class="edge-thickness-normal edge-pattern-solid relation" style=";;;" data-edge="true" data-et="edge" data-id="id_IPlayerState_MiniState_5" data-points="W3sieCI6MTM1OC44OTg5NTAxOTUzMTI0LCJ5IjoyNTR9LHsieCI6MTQzMy4wODU5Mzc1LCJ5IjoyOTF9LHsieCI6MTQzMy4wODU5Mzc1LCJ5IjozOTd9XQ==" data-look="classic" marker-start="url(#my-svg_class-extensionStart)"/><path d="M1419.375,219.552L1460.673,231.46C1501.97,243.368,1584.564,267.184,1633.672,285.259C1682.781,303.333,1698.403,315.667,1706.215,321.833L1714.026,328" id="my-svg-id_IPlayerState_PlayerStateDecorator_6" class="edge-thickness-normal edge-pattern-solid relation" style=";;;" data-edge="true" data-et="edge" data-id="id_IPlayerState_PlayerStateDecorator_6" data-points="W3sieCI6MTQwMi44MDA3ODEyNSwieSI6MjE0Ljc3MjQ4Nzc1OTU0ODZ9LHsieCI6MTY2Ny4xNTgyMDMxMjUsInkiOjI5MX0seyJ4IjoxNzE0LjAyNjA5NTU5OTExMjUsInkiOjMyOH1d" data-look="classic" marker-start="url(#my-svg_class-extensionStart)"/><path d="M1696.971,602.555L1693.859,604.963C1690.748,607.37,1684.524,612.185,1681.412,620.759C1678.301,629.333,1678.301,641.667,1678.301,647.833L1678.301,654" id="my-svg-id_PlayerStateDecorator_StarDecorator_7" class="edge-thickness-normal edge-pattern-solid relation" style=";;;" data-edge="true" data-et="edge" data-id="id_PlayerStateDecorator_StarDecorator_7" data-points="W3sieCI6MTcxMC42MTQ0MjU3NTYzNjk0LCJ5Ijo1OTJ9LHsieCI6MTY3OC4zMDA3ODEyNSwieSI6NjE3fSx7IngiOjE2NzguMzAwNzgxMjUsInkiOjY1NH1d" data-look="classic" marker-start="url(#my-svg_class-extensionStart)"/><path d="M2065.49,602.555L2068.602,604.963C2071.713,607.37,2077.937,612.185,2081.048,618.759C2084.16,625.333,2084.16,633.667,2084.16,637.833L2084.16,642" id="my-svg-id_PlayerStateDecorator_MegaDecorator_8" class="edge-thickness-normal edge-pattern-solid relation" style=";;;" data-edge="true" data-et="edge" data-id="id_PlayerStateDecorator_MegaDecorator_8" data-points="W3sieCI6MjA1MS44NDY1MTE3NDM2MzEsInkiOjU5Mn0seyJ4IjoyMDg0LjE2MDE1NjI1LCJ5Ijo2MTd9LHsieCI6MjA4NC4xNjAxNTYyNSwieSI6NjQyfV0=" data-look="classic" marker-start="url(#my-svg_class-extensionStart)"/><path d="M1901.793,310.912L1902.251,307.593C1902.708,304.275,1903.624,297.637,1820.458,277.431C1737.293,257.224,1570.047,223.448,1486.424,206.56L1402.801,189.672" id="my-svg-id_PlayerStateDecorator_IPlayerState_9" class="edge-thickness-normal edge-pattern-solid relation" style=";;;" data-edge="true" data-et="edge" data-id="id_PlayerStateDecorator_IPlayerState_9" data-points="W3sieCI6MTg5OS40MzU5OTc1OTYxNTM4LCJ5IjozMjh9LHsieCI6MTkwNC41MzkwNjI1LCJ5IjoyOTF9LHsieCI6MTQwMi44MDA3ODEyNSwieSI6MTg5LjY3MjIxNTEyNzc3NDAyfV0=" data-look="classic" marker-start="url(#my-svg_class-aggregationStart)"/></g><g class="edgeLabels"><g class="edgeLabel"><g class="label" data-id="id_IPlayerState_SmallState_1" transform="translate(0, 0)"><foreignObject width="0" height="0"><div xmlns="http://www.w3.org/1999/xhtml" class="labelBkg" style="display: table-cell; white-space: nowrap; line-height: 1.5; max-width: 200px; text-align: center;"><span class="edgeLabel"></span></div></foreignObject></g></g><g class="edgeLabel"><g class="label" data-id="id_IPlayerState_SuperState_2" transform="translate(0, 0)"><foreignObject width="0" height="0"><div xmlns="http://www.w3.org/1999/xhtml" class="labelBkg" style="display: table-cell; white-space: nowrap; line-height: 1.5; max-width: 200px; text-align: center;"><span class="edgeLabel"></span></div></foreignObject></g></g><g class="edgeLabel"><g class="label" data-id="id_IPlayerState_FireState_3" transform="translate(0, 0)"><foreignObject width="0" height="0"><div xmlns="http://www.w3.org/1999/xhtml" class="labelBkg" style="display: table-cell; white-space: nowrap; line-height: 1.5; max-width: 200px; text-align: center;"><span class="edgeLabel"></span></div></foreignObject></g></g><g class="edgeLabel"><g class="label" data-id="id_IPlayerState_CapeState_4" transform="translate(0, 0)"><foreignObject width="0" height="0"><div xmlns="http://www.w3.org/1999/xhtml" class="labelBkg" style="display: table-cell; white-space: nowrap; line-height: 1.5; max-width: 200px; text-align: center;"><span class="edgeLabel"></span></div></foreignObject></g></g><g class="edgeLabel"><g class="label" data-id="id_IPlayerState_MiniState_5" transform="translate(0, 0)"><foreignObject width="0" height="0"><div xmlns="http://www.w3.org/1999/xhtml" class="labelBkg" style="display: table-cell; white-space: nowrap; line-height: 1.5; max-width: 200px; text-align: center;"><span class="edgeLabel"></span></div></foreignObject></g></g><g class="edgeLabel"><g class="label" data-id="id_IPlayerState_PlayerStateDecorator_6" transform="translate(0, 0)"><foreignObject width="0" height="0"><div xmlns="http://www.w3.org/1999/xhtml" class="labelBkg" style="display: table-cell; white-space: nowrap; line-height: 1.5; max-width: 200px; text-align: center;"><span class="edgeLabel"></span></div></foreignObject></g></g><g class="edgeLabel"><g class="label" data-id="id_PlayerStateDecorator_StarDecorator_7" transform="translate(0, 0)"><foreignObject width="0" height="0"><div xmlns="http://www.w3.org/1999/xhtml" class="labelBkg" style="display: table-cell; white-space: nowrap; line-height: 1.5; max-width: 200px; text-align: center;"><span class="edgeLabel"></span></div></foreignObject></g></g><g class="edgeLabel"><g class="label" data-id="id_PlayerStateDecorator_MegaDecorator_8" transform="translate(0, 0)"><foreignObject width="0" height="0"><div xmlns="http://www.w3.org/1999/xhtml" class="labelBkg" style="display: table-cell; white-space: nowrap; line-height: 1.5; max-width: 200px; text-align: center;"><span class="edgeLabel"></span></div></foreignObject></g></g><g class="edgeLabel" transform="translate(1671.97548, 244.03298)"><g class="label" data-id="id_PlayerStateDecorator_IPlayerState_9" transform="translate(-26.6171875, -12)"><foreignObject width="53.234375" height="24"><div xmlns="http://www.w3.org/1999/xhtml" class="labelBkg" style="display: table-cell; white-space: nowrap; line-height: 1.5; max-width: 200px; text-align: center;"><span class="edgeLabel"><p>"Wraps"</p></span></div></foreignObject></g></g></g><g class="nodes"><g class="node default" id="my-svg-classId-IPlayerState-0" data-look="classic" transform="translate(1112.27734375, 131)"><g class="basic label-container outer-path"><path d="M-290.5234375 -123 L290.5234375 -123 L290.5234375 123 L-290.5234375 123" stroke="none" stroke-width="0" fill="#ECECFF" style=""/><path d="M-290.5234375 -123 C-140.5191593429959 -123, 9.485118814008217 -123, 290.5234375 -123 M-290.5234375 -123 C-117.16534504289723 -123, 56.19274741420554 -123, 290.5234375 -123 M290.5234375 -123 C290.5234375 -39.88458734999176, 290.5234375 43.23082530001648, 290.5234375 123 M290.5234375 -123 C290.5234375 -70.915134607403, 290.5234375 -18.83026921480601, 290.5234375 123 M290.5234375 123 C74.28937162254181 123, -141.94469425491639 123, -290.5234375 123 M290.5234375 123 C166.6613452993035 123, 42.79925309860701 123, -290.5234375 123 M-290.5234375 123 C-290.5234375 38.827344137902315, -290.5234375 -45.34531172419537, -290.5234375 -123 M-290.5234375 123 C-290.5234375 56.92181453854924, -290.5234375 -9.156370922901516, -290.5234375 -123" stroke="#9370DB" stroke-width="1.3" fill="none" stroke-dasharray="0 0" style=""/></g><g class="annotation-group text" transform="translate(-41.171875, -99)"><g class="label" style="" transform="translate(0,-12)"><foreignObject width="82.34375" height="24"><div xmlns="http://www.w3.org/1999/xhtml" style="display: table-cell; white-space: nowrap; line-height: 1.5; max-width: 122px; text-align: center;"><span class="nodeLabel markdown-node-label" style=""><p>«interface»</p></span></div></foreignObject></g></g><g class="label-group text" transform="translate(-45.125, -75)"><g class="label" style="font-weight: bolder" transform="translate(0,-12)"><foreignObject width="90.25" height="24"><div xmlns="http://www.w3.org/1999/xhtml" style="display: table-cell; white-space: nowrap; line-height: 1.5; max-width: 128px; text-align: center;"><span class="nodeLabel markdown-node-label" style=""><p>IPlayerState</p></span></div></foreignObject></g></g><g class="members-group text" transform="translate(-278.5234375, -27)"/><g class="methods-group text" transform="translate(-278.5234375, 3)"><g class="label" style="" transform="translate(0,-12)"><foreignObject width="293.078125" height="24"><div xmlns="http://www.w3.org/1999/xhtml" style="display: table-cell; white-space: nowrap; line-height: 1.5; max-width: 319px; text-align: center;"><span class="nodeLabel markdown-node-label" style=""><p>+ virtual void enter(Player&amp; player) : = 0</p></span></div></foreignObject></g><g class="label" style="" transform="translate(0,12)"><foreignObject width="281.96875" height="24"><div xmlns="http://www.w3.org/1999/xhtml" style="display: table-cell; white-space: nowrap; line-height: 1.5; max-width: 311px; text-align: center;"><span class="nodeLabel markdown-node-label" style=""><p>+ virtual void exit(Player&amp; player) : = 0</p></span></div></foreignObject></g><g class="label" style="" transform="translate(0,36)"><foreignObject width="511.921875" height="24"><div xmlns="http://www.w3.org/1999/xhtml" style="display: table-cell; white-space: nowrap; line-height: 1.5; max-width: 518px; text-align: center;"><span class="nodeLabel markdown-node-label" style=""><p>+ virtual void handleInput(Player&amp; player, const sf::Event&amp; event) : = 0</p></span></div></foreignObject></g><g class="label" style="" transform="translate(0,60)"><foreignObject width="366.828125" height="24"><div xmlns="http://www.w3.org/1999/xhtml" style="display: table-cell; white-space: nowrap; line-height: 1.5; max-width: 383px; text-align: center;"><span class="nodeLabel markdown-node-label" style=""><p>+ virtual void update(Player&amp; player, float dt) : = 0</p></span></div></foreignObject></g><g class="label" style="" transform="translate(0,84)"><foreignObject width="297.734375" height="24"><div xmlns="http://www.w3.org/1999/xhtml" style="display: table-cell; white-space: nowrap; line-height: 1.5; max-width: 322px; text-align: center;"><span class="nodeLabel markdown-node-label" style=""><p>+ virtual sf::Vector2f getSize() : const = 0</p></span></div></foreignObject></g></g><g class="divider" style=""><path d="M-290.5234375 -51 C-91.81605813326698 -50.99965801833223, 106.89132123346604 -50.99931603666445, 290.5234375 -50.999 M-290.5234375 -51 C-73.43276871386888 -50.999626380111266, 143.65790007226224 -50.99925276022253, 290.5234375 -50.999" stroke="#9370DB" stroke-width="1.3" fill="none" stroke-dasharray="0 0" style=""/></g><g class="divider" style=""><path d="M-290.5234375 -27 C-154.89925699935665 -26.999766586507327, -19.275076498713304 -26.999533173014655, 290.5234375 -26.999 M-290.5234375 -27 C-115.48915931686801 -26.99969876048609, 59.54511886626398 -26.99939752097218, 290.5234375 -26.999" stroke="#9370DB" stroke-width="1.3" fill="none" stroke-dasharray="0 0" style=""/></g></g><g class="node default" id="my-svg-classId-SmallState-1" data-look="classic" transform="translate(144.91015625, 460)"><g class="basic label-container outer-path"><path d="M-136.91015625 -63 L136.91015625 -63 L136.91015625 63 L-136.91015625 63" stroke="none" stroke-width="0" fill="#ECECFF" style=""/><path d="M-136.91015625 -63 C-49.954001368214406 -63, 37.00215351357119 -63, 136.91015625 -63 M-136.91015625 -63 C-41.99019696149192 -63, 52.929762327016164 -63, 136.91015625 -63 M136.91015625 -63 C136.91015625 -36.43230068425369, 136.91015625 -9.86460136850738, 136.91015625 63 M136.91015625 -63 C136.91015625 -36.84280588111975, 136.91015625 -10.685611762239503, 136.91015625 63 M136.91015625 63 C27.490870040278025 63, -81.92841616944395 63, -136.91015625 63 M136.91015625 63 C66.19614406837641 63, -4.517868113247175 63, -136.91015625 63 M-136.91015625 63 C-136.91015625 25.8409875772227, -136.91015625 -11.318024845554604, -136.91015625 -63 M-136.91015625 63 C-136.91015625 24.30256698125286, -136.91015625 -14.394866037494282, -136.91015625 -63" stroke="#9370DB" stroke-width="1.3" fill="none" stroke-dasharray="0 0" style=""/></g><g class="annotation-group text" transform="translate(0, -39)"/><g class="label-group text" transform="translate(-39.2421875, -39)"><g class="label" style="font-weight: bolder" transform="translate(0,-12)"><foreignObject width="78.484375" height="24"><div xmlns="http://www.w3.org/1999/xhtml" style="display: table-cell; white-space: nowrap; line-height: 1.5; max-width: 119px; text-align: center;"><span class="nodeLabel markdown-node-label" style=""><p>SmallState</p></span></div></foreignObject></g></g><g class="members-group text" transform="translate(-124.91015625, 9)"/><g class="methods-group text" transform="translate(-124.91015625, 39)"><g class="label" style="" transform="translate(0,-12)"><foreignObject width="210.578125" height="24"><div xmlns="http://www.w3.org/1999/xhtml" style="display: table-cell; white-space: nowrap; line-height: 1.5; max-width: 244px; text-align: center;"><span class="nodeLabel markdown-node-label" style=""><p>+ void update(Player&amp;, float)</p></span></div></foreignObject></g></g><g class="divider" style=""><path d="M-136.91015625 -15 C-79.98685155273267 -14.999792114382686, -23.06354685546536 -14.999584228765372, 136.91015625 -14.999 M-136.91015625 -15 C-42.21312448380877 -14.999654163597647, 52.48390728238246 -14.999308327195294, 136.91015625 -14.999" stroke="#9370DB" stroke-width="1.3" fill="none" stroke-dasharray="0 0" style=""/></g><g class="divider" style=""><path d="M-136.91015625 9 C-59.53038903064521 9.000282593232448, 17.84937818870958 9.000565186464897, 136.91015625 9.001 M-136.91015625 9 C-57.2301609868491 9.000290993734305, 22.4498342763018 9.00058198746861, 136.91015625 9.001" stroke="#9370DB" stroke-width="1.3" fill="none" stroke-dasharray="0 0" style=""/></g></g><g class="node default" id="my-svg-classId-SuperState-2" data-look="classic" transform="translate(469.50390625, 460)"><g class="basic label-container outer-path"><path d="M-137.68359375 -63 L137.68359375 -63 L137.68359375 63 L-137.68359375 63" stroke="none" stroke-width="0" fill="#ECECFF" style=""/><path d="M-137.68359375 -63 C-35.68081601595742 -63, 66.32196171808516 -63, 137.68359375 -63 M-137.68359375 -63 C-77.58654714696075 -63, -17.489500543921523 -63, 137.68359375 -63 M137.68359375 -63 C137.68359375 -29.27841480903473, 137.68359375 4.443170381930543, 137.68359375 63 M137.68359375 -63 C137.68359375 -19.374876950868718, 137.68359375 24.250246098262565, 137.68359375 63 M137.68359375 63 C69.94251370035919 63, 2.2014336507183714 63, -137.68359375 63 M137.68359375 63 C30.11467788705022 63, -77.45423797589956 63, -137.68359375 63 M-137.68359375 63 C-137.68359375 17.724166294565364, -137.68359375 -27.55166741086927, -137.68359375 -63 M-137.68359375 63 C-137.68359375 21.87163760519209, -137.68359375 -19.256724789615816, -137.68359375 -63" stroke="#9370DB" stroke-width="1.3" fill="none" stroke-dasharray="0 0" style=""/></g><g class="annotation-group text" transform="translate(0, -39)"/><g class="label-group text" transform="translate(-40.7890625, -39)"><g class="label" style="font-weight: bolder" transform="translate(0,-12)"><foreignObject width="81.578125" height="24"><div xmlns="http://www.w3.org/1999/xhtml" style="display: table-cell; white-space: nowrap; line-height: 1.5; max-width: 119px; text-align: center;"><span class="nodeLabel markdown-node-label" style=""><p>SuperState</p></span></div></foreignObject></g></g><g class="members-group text" transform="translate(-125.68359375, 9)"/><g class="methods-group text" transform="translate(-125.68359375, 39)"><g class="label" style="" transform="translate(0,-12)"><foreignObject width="210.578125" height="24"><div xmlns="http://www.w3.org/1999/xhtml" style="display: table-cell; white-space: nowrap; line-height: 1.5; max-width: 244px; text-align: center;"><span class="nodeLabel markdown-node-label" style=""><p>+ void update(Player&amp;, float)</p></span></div></foreignObject></g></g><g class="divider" style=""><path d="M-137.68359375 -15 C-34.92682196728882 -14.999626837268755, 67.82994981542237 -14.999253674537512, 137.68359375 -14.999 M-137.68359375 -15 C-27.883851936594652 -14.999601260619285, 81.9158898768107 -14.999202521238567, 137.68359375 -14.999" stroke="#9370DB" stroke-width="1.3" fill="none" stroke-dasharray="0 0" style=""/></g><g class="divider" style=""><path d="M-137.68359375 9 C-56.50274221414769 9.000294809458865, 24.678109321704625 9.000589618917727, 137.68359375 9.001 M-137.68359375 9 C-38.94000718850897 9.000358588789965, 59.80357937298206 9.000717177579928, 137.68359375 9.001" stroke="#9370DB" stroke-width="1.3" fill="none" stroke-dasharray="0 0" style=""/></g></g><g class="node default" id="my-svg-classId-FireState-3" data-look="classic" transform="translate(791.66015625, 460)"><g class="basic label-container outer-path"><path d="M-134.47265625 -63 L134.47265625 -63 L134.47265625 63 L-134.47265625 63" stroke="none" stroke-width="0" fill="#ECECFF" style=""/><path d="M-134.47265625 -63 C-54.54688773624069 -63, 25.378880777518617 -63, 134.47265625 -63 M-134.47265625 -63 C-74.14415680076402 -63, -13.81565735152806 -63, 134.47265625 -63 M134.47265625 -63 C134.47265625 -31.803352210588614, 134.47265625 -0.606704421177227, 134.47265625 63 M134.47265625 -63 C134.47265625 -13.77600667263198, 134.47265625 35.44798665473604, 134.47265625 63 M134.47265625 63 C67.74826175128318 63, 1.0238672525663617 63, -134.47265625 63 M134.47265625 63 C78.65670404401946 63, 22.840751838038926 63, -134.47265625 63 M-134.47265625 63 C-134.47265625 23.336286931123993, -134.47265625 -16.327426137752013, -134.47265625 -63 M-134.47265625 63 C-134.47265625 23.11081468690636, -134.47265625 -16.778370626187282, -134.47265625 -63" stroke="#9370DB" stroke-width="1.3" fill="none" stroke-dasharray="0 0" style=""/></g><g class="annotation-group text" transform="translate(0, -39)"/><g class="label-group text" transform="translate(-34.3671875, -39)"><g class="label" style="font-weight: bolder" transform="translate(0,-12)"><foreignObject width="68.734375" height="24"><div xmlns="http://www.w3.org/1999/xhtml" style="display: table-cell; white-space: nowrap; line-height: 1.5; max-width: 108px; text-align: center;"><span class="nodeLabel markdown-node-label" style=""><p>FireState</p></span></div></foreignObject></g></g><g class="members-group text" transform="translate(-122.47265625, 9)"/><g class="methods-group text" transform="translate(-122.47265625, 39)"><g class="label" style="" transform="translate(0,-12)"><foreignObject width="210.578125" height="24"><div xmlns="http://www.w3.org/1999/xhtml" style="display: table-cell; white-space: nowrap; line-height: 1.5; max-width: 244px; text-align: center;"><span class="nodeLabel markdown-node-label" style=""><p>+ void update(Player&amp;, float)</p></span></div></foreignObject></g></g><g class="divider" style=""><path d="M-134.47265625 -15 C-44.213119135770185 -14.99966439445895, 46.04641797845963 -14.999328788917902, 134.47265625 -14.999 M-134.47265625 -15 C-72.55965467249918 -14.999769793341992, -10.646653094998356 -14.999539586683985, 134.47265625 -14.999" stroke="#9370DB" stroke-width="1.3" fill="none" stroke-dasharray="0 0" style=""/></g><g class="divider" style=""><path d="M-134.47265625 9 C-75.9241887772786 9.000217696552985, -17.375721304557203 9.00043539310597, 134.47265625 9.001 M-134.47265625 9 C-44.97401646925485 9.000332776351254, 44.5246233114903 9.00066555270251, 134.47265625 9.001" stroke="#9370DB" stroke-width="1.3" fill="none" stroke-dasharray="0 0" style=""/></g></g><g class="node default" id="my-svg-classId-CapeState-4" data-look="classic" transform="translate(1112.27734375, 460)"><g class="basic label-container outer-path"><path d="M-136.14453125 -63 L136.14453125 -63 L136.14453125 63 L-136.14453125 63" stroke="none" stroke-width="0" fill="#ECECFF" style=""/><path d="M-136.14453125 -63 C-51.250907691160364 -63, 33.64271586767927 -63, 136.14453125 -63 M-136.14453125 -63 C-37.42245159274482 -63, 61.29962806451036 -63, 136.14453125 -63 M136.14453125 -63 C136.14453125 -22.680207402363337, 136.14453125 17.639585195273327, 136.14453125 63 M136.14453125 -63 C136.14453125 -23.425666892901297, 136.14453125 16.148666214197405, 136.14453125 63 M136.14453125 63 C32.03762228422991 63, -72.06928668154018 63, -136.14453125 63 M136.14453125 63 C47.18939961660128 63, -41.76573201679744 63, -136.14453125 63 M-136.14453125 63 C-136.14453125 14.704853820329717, -136.14453125 -33.590292359340566, -136.14453125 -63 M-136.14453125 63 C-136.14453125 35.05578087527071, -136.14453125 7.111561750541426, -136.14453125 -63" stroke="#9370DB" stroke-width="1.3" fill="none" stroke-dasharray="0 0" style=""/></g><g class="annotation-group text" transform="translate(0, -39)"/><g class="label-group text" transform="translate(-37.7109375, -39)"><g class="label" style="font-weight: bolder" transform="translate(0,-12)"><foreignObject width="75.421875" height="24"><div xmlns="http://www.w3.org/1999/xhtml" style="display: table-cell; white-space: nowrap; line-height: 1.5; max-width: 115px; text-align: center;"><span class="nodeLabel markdown-node-label" style=""><p>CapeState</p></span></div></foreignObject></g></g><g class="members-group text" transform="translate(-124.14453125, 9)"/><g class="methods-group text" transform="translate(-124.14453125, 39)"><g class="label" style="" transform="translate(0,-12)"><foreignObject width="210.578125" height="24"><div xmlns="http://www.w3.org/1999/xhtml" style="display: table-cell; white-space: nowrap; line-height: 1.5; max-width: 244px; text-align: center;"><span class="nodeLabel markdown-node-label" style=""><p>+ void update(Player&amp;, float)</p></span></div></foreignObject></g></g><g class="divider" style=""><path d="M-136.14453125 -15 C-44.05539950982859 -14.999661796434662, 48.03373223034282 -14.999323592869324, 136.14453125 -14.999 M-136.14453125 -15 C-68.58230051395768 -14.99975187313763, -1.020069777915353 -14.99950374627526, 136.14453125 -14.999" stroke="#9370DB" stroke-width="1.3" fill="none" stroke-dasharray="0 0" style=""/></g><g class="divider" style=""><path d="M-136.14453125 9 C-69.18783009100869 9.00024590301404, -2.231128932017384 9.00049180602808, 136.14453125 9.001 M-136.14453125 9 C-42.01269802847462 9.0003457055247, 52.11913519305077 9.000691411049399, 136.14453125 9.001" stroke="#9370DB" stroke-width="1.3" fill="none" stroke-dasharray="0 0" style=""/></g></g><g class="node default" id="my-svg-classId-MiniState-5" data-look="classic" transform="translate(1433.0859375, 460)"><g class="basic label-container outer-path"><path d="M-134.6640625 -63 L134.6640625 -63 L134.6640625 63 L-134.6640625 63" stroke="none" stroke-width="0" fill="#ECECFF" style=""/><path d="M-134.6640625 -63 C-75.91156885949528 -63, -17.15907521899055 -63, 134.6640625 -63 M-134.6640625 -63 C-32.61310051337901 -63, 69.43786147324198 -63, 134.6640625 -63 M134.6640625 -63 C134.6640625 -12.802912885602048, 134.6640625 37.394174228795904, 134.6640625 63 M134.6640625 -63 C134.6640625 -22.60700668629014, 134.6640625 17.785986627419717, 134.6640625 63 M134.6640625 63 C32.399629655800865 63, -69.86480318839827 63, -134.6640625 63 M134.6640625 63 C77.32923105733823 63, 19.994399614676468 63, -134.6640625 63 M-134.6640625 63 C-134.6640625 33.669438870861896, -134.6640625 4.338877741723799, -134.6640625 -63 M-134.6640625 63 C-134.6640625 32.4644649387613, -134.6640625 1.9289298775226058, -134.6640625 -63" stroke="#9370DB" stroke-width="1.3" fill="none" stroke-dasharray="0 0" style=""/></g><g class="annotation-group text" transform="translate(0, -39)"/><g class="label-group text" transform="translate(-34.75, -39)"><g class="label" style="font-weight: bolder" transform="translate(0,-12)"><foreignObject width="69.5" height="24"><div xmlns="http://www.w3.org/1999/xhtml" style="display: table-cell; white-space: nowrap; line-height: 1.5; max-width: 113px; text-align: center;"><span class="nodeLabel markdown-node-label" style=""><p>MiniState</p></span></div></foreignObject></g></g><g class="members-group text" transform="translate(-122.6640625, 9)"/><g class="methods-group text" transform="translate(-122.6640625, 39)"><g class="label" style="" transform="translate(0,-12)"><foreignObject width="210.578125" height="24"><div xmlns="http://www.w3.org/1999/xhtml" style="display: table-cell; white-space: nowrap; line-height: 1.5; max-width: 244px; text-align: center;"><span class="nodeLabel markdown-node-label" style=""><p>+ void update(Player&amp;, float)</p></span></div></foreignObject></g></g><g class="divider" style=""><path d="M-134.6640625 -15 C-80.31256309844127 -14.999798195976, -25.961063696882533 -14.999596391951998, 134.6640625 -14.999 M-134.6640625 -15 C-37.4774208068786 -14.999639151530523, 59.709220886242804 -14.999278303061049, 134.6640625 -14.999" stroke="#9370DB" stroke-width="1.3" fill="none" stroke-dasharray="0 0" style=""/></g><g class="divider" style=""><path d="M-134.6640625 9 C-58.27349588049245 9.000283633826283, 18.117070739015105 9.000567267652567, 134.6640625 9.001 M-134.6640625 9 C-36.54946020893786 9.000364293934364, 61.56514208212428 9.000728587868727, 134.6640625 9.001" stroke="#9370DB" stroke-width="1.3" fill="none" stroke-dasharray="0 0" style=""/></g></g><g class="node default" id="my-svg-classId-PlayerStateDecorator-6" data-look="classic" transform="translate(1881.23046875, 460)"><g class="basic label-container outer-path"><path d="M-263.48046875 -132 L263.48046875 -132 L263.48046875 132 L-263.48046875 132" stroke="none" stroke-width="0" fill="#ECECFF" style=""/><path d="M-263.48046875 -132 C-92.27591591840354 -132, 78.92863691319292 -132, 263.48046875 -132 M-263.48046875 -132 C-124.53040406177897 -132, 14.419660626442067 -132, 263.48046875 -132 M263.48046875 -132 C263.48046875 -27.093067353360354, 263.48046875 77.81386529327929, 263.48046875 132 M263.48046875 -132 C263.48046875 -64.1109810210983, 263.48046875 3.778037957803406, 263.48046875 132 M263.48046875 132 C132.21202144128648 132, 0.9435741325729623 132, -263.48046875 132 M263.48046875 132 C96.75367722851362 132, -69.97311429297275 132, -263.48046875 132 M-263.48046875 132 C-263.48046875 34.44235612001137, -263.48046875 -63.115287759977264, -263.48046875 -132 M-263.48046875 132 C-263.48046875 78.04461828443394, -263.48046875 24.08923656886789, -263.48046875 -132" stroke="#9370DB" stroke-width="1.3" fill="none" stroke-dasharray="0 0" style=""/></g><g class="annotation-group text" transform="translate(-37.90625, -108)"><g class="label" style="" transform="translate(0,-12)"><foreignObject width="75.8125" height="24"><div xmlns="http://www.w3.org/1999/xhtml" style="display: table-cell; white-space: nowrap; line-height: 1.5; max-width: 116px; text-align: center;"><span class="nodeLabel markdown-node-label" style=""><p>«abstract»</p></span></div></foreignObject></g></g><g class="label-group text" transform="translate(-79.8046875, -84)"><g class="label" style="font-weight: bolder" transform="translate(0,-12)"><foreignObject width="159.609375" height="24"><div xmlns="http://www.w3.org/1999/xhtml" style="display: table-cell; white-space: nowrap; line-height: 1.5; max-width: 187px; text-align: center;"><span class="nodeLabel markdown-node-label" style=""><p>PlayerStateDecorator</p></span></div></foreignObject></g></g><g class="members-group text" transform="translate(-251.48046875, -36)"><g class="label" style="" transform="translate(0,-12)"><foreignObject width="354.640625" height="24"><div xmlns="http://www.w3.org/1999/xhtml" style="display: table-cell; white-space: nowrap; line-height: 1.5; max-width: 408px; text-align: center;"><span class="nodeLabel markdown-node-label" style=""><p># std::unique_ptr&lt;IPlayerState&gt; m_wrappedState</p></span></div></foreignObject></g></g><g class="methods-group text" transform="translate(-251.48046875, 12)"><g class="label" style="" transform="translate(0,-12)"><foreignObject width="204.3125" height="24"><div xmlns="http://www.w3.org/1999/xhtml" style="display: table-cell; white-space: nowrap; line-height: 1.5; max-width: 240px; text-align: center;"><span class="nodeLabel markdown-node-label" style=""><p>+ void enter(Player&amp; player)</p></span></div></foreignObject></g><g class="label" style="" transform="translate(0,12)"><foreignObject width="193.203125" height="24"><div xmlns="http://www.w3.org/1999/xhtml" style="display: table-cell; white-space: nowrap; line-height: 1.5; max-width: 232px; text-align: center;"><span class="nodeLabel markdown-node-label" style=""><p>+ void exit(Player&amp; player)</p></span></div></foreignObject></g><g class="label" style="" transform="translate(0,36)"><foreignObject width="423.15625" height="24"><div xmlns="http://www.w3.org/1999/xhtml" style="display: table-cell; white-space: nowrap; line-height: 1.5; max-width: 438px; text-align: center;"><span class="nodeLabel markdown-node-label" style=""><p>+ void handleInput(Player&amp; player, const sf::Event&amp; event)</p></span></div></foreignObject></g><g class="label" style="" transform="translate(0,60)"><foreignObject width="278.0625" height="24"><div xmlns="http://www.w3.org/1999/xhtml" style="display: table-cell; white-space: nowrap; line-height: 1.5; max-width: 304px; text-align: center;"><span class="nodeLabel markdown-node-label" style=""><p>+ void update(Player&amp; player, float dt)</p></span></div></foreignObject></g><g class="label" style="" transform="translate(0,84)"><foreignObject width="219.65625" height="24"><div xmlns="http://www.w3.org/1999/xhtml" style="display: table-cell; white-space: nowrap; line-height: 1.5; max-width: 251px; text-align: center;"><span class="nodeLabel markdown-node-label" style=""><p>+ sf::Vector2f getSize() : const</p></span></div></foreignObject></g></g><g class="divider" style=""><path d="M-263.48046875 -60 C-92.8626892149546 -59.99967622309854, 77.7550903200908 -59.99935244619708, 263.48046875 -59.999 M-263.48046875 -60 C-110.54663368038453 -59.99970978145782, 42.38720138923094 -59.999419562915634, 263.48046875 -59.999" stroke="#9370DB" stroke-width="1.3" fill="none" stroke-dasharray="0 0" style=""/></g><g class="divider" style=""><path d="M-263.48046875 -12 C-86.58811548898834 -11.999664316003953, 90.30423777202333 -11.999328632007906, 263.48046875 -11.999 M-263.48046875 -12 C-119.31389883762006 -11.99972641886779, 24.852671074759883 -11.999452837735578, 263.48046875 -11.999" stroke="#9370DB" stroke-width="1.3" fill="none" stroke-dasharray="0 0" style=""/></g></g><g class="node default" id="my-svg-classId-StarDecorator-7" data-look="classic" transform="translate(1678.30078125, 717)"><g class="basic label-container outer-path"><path d="M-176.95703125 -63 L176.95703125 -63 L176.95703125 63 L-176.95703125 63" stroke="none" stroke-width="0" fill="#ECECFF" style=""/><path d="M-176.95703125 -63 C-81.3839596200163 -63, 14.189112009967403 -63, 176.95703125 -63 M-176.95703125 -63 C-79.04745982761362 -63, 18.862111594772756 -63, 176.95703125 -63 M176.95703125 -63 C176.95703125 -23.362941883966094, 176.95703125 16.27411623206781, 176.95703125 63 M176.95703125 -63 C176.95703125 -20.238238641182846, 176.95703125 22.523522717634307, 176.95703125 63 M176.95703125 63 C66.46949579192294 63, -44.018039666154124 63, -176.95703125 63 M176.95703125 63 C96.40595972386781 63, 15.854888197735619 63, -176.95703125 63 M-176.95703125 63 C-176.95703125 37.568369284333485, -176.95703125 12.136738568666964, -176.95703125 -63 M-176.95703125 63 C-176.95703125 37.62202119481766, -176.95703125 12.244042389635325, -176.95703125 -63" stroke="#9370DB" stroke-width="1.3" fill="none" stroke-dasharray="0 0" style=""/></g><g class="annotation-group text" transform="translate(0, -39)"/><g class="label-group text" transform="translate(-51.8515625, -39)"><g class="label" style="font-weight: bolder" transform="translate(0,-12)"><foreignObject width="103.703125" height="24"><div xmlns="http://www.w3.org/1999/xhtml" style="display: table-cell; white-space: nowrap; line-height: 1.5; max-width: 140px; text-align: center;"><span class="nodeLabel markdown-node-label" style=""><p>StarDecorator</p></span></div></foreignObject></g></g><g class="members-group text" transform="translate(-164.95703125, 9)"/><g class="methods-group text" transform="translate(-164.95703125, 39)"><g class="label" style="" transform="translate(0,-12)"><foreignObject width="278.0625" height="24"><div xmlns="http://www.w3.org/1999/xhtml" style="display: table-cell; white-space: nowrap; line-height: 1.5; max-width: 304px; text-align: center;"><span class="nodeLabel markdown-node-label" style=""><p>+ void update(Player&amp; player, float dt)</p></span></div></foreignObject></g></g><g class="divider" style=""><path d="M-176.95703125 -15 C-91.34077630980264 -14.99975808744548, -5.72452136960527 -14.999516174890958, 176.95703125 -14.999 M-176.95703125 -15 C-91.40759317384601 -14.999758276239515, -5.85815509769202 -14.99951655247903, 176.95703125 -14.999" stroke="#9370DB" stroke-width="1.3" fill="none" stroke-dasharray="0 0" style=""/></g><g class="divider" style=""><path d="M-176.95703125 9 C-62.62804543390969 9.000323041658781, 51.70094038218062 9.000646083317562, 176.95703125 9.001 M-176.95703125 9 C-69.34097105459401 9.00030407398744, 38.275089140811986 9.00060814797488, 176.95703125 9.001" stroke="#9370DB" stroke-width="1.3" fill="none" stroke-dasharray="0 0" style=""/></g></g><g class="node default" id="my-svg-classId-MegaDecorator-8" data-look="classic" transform="translate(2084.16015625, 717)"><g class="basic label-container outer-path"><path d="M-178.90234375 -75 L178.90234375 -75 L178.90234375 75 L-178.90234375 75" stroke="none" stroke-width="0" fill="#ECECFF" style=""/><path d="M-178.90234375 -75 C-62.79862085697178 -75, 53.30510203605644 -75, 178.90234375 -75 M-178.90234375 -75 C-102.53967802134707 -75, -26.177012292694144 -75, 178.90234375 -75 M178.90234375 -75 C178.90234375 -39.06044746712344, 178.90234375 -3.120894934246877, 178.90234375 75 M178.90234375 -75 C178.90234375 -30.22861865002543, 178.90234375 14.542762699949137, 178.90234375 75 M178.90234375 75 C39.132113301989364 75, -100.63811714602127 75, -178.90234375 75 M178.90234375 75 C68.51947706540652 75, -41.86338961918696 75, -178.90234375 75 M-178.90234375 75 C-178.90234375 31.0391281768271, -178.90234375 -12.921743646345803, -178.90234375 -75 M-178.90234375 75 C-178.90234375 22.661549803048466, -178.90234375 -29.676900393903068, -178.90234375 -75" stroke="#9370DB" stroke-width="1.3" fill="none" stroke-dasharray="0 0" style=""/></g><g class="annotation-group text" transform="translate(0, -51)"/><g class="label-group text" transform="translate(-55.7421875, -51)"><g class="label" style="font-weight: bolder" transform="translate(0,-12)"><foreignObject width="111.484375" height="24"><div xmlns="http://www.w3.org/1999/xhtml" style="display: table-cell; white-space: nowrap; line-height: 1.5; max-width: 150px; text-align: center;"><span class="nodeLabel markdown-node-label" style=""><p>MegaDecorator</p></span></div></foreignObject></g></g><g class="members-group text" transform="translate(-166.90234375, -3)"/><g class="methods-group text" transform="translate(-166.90234375, 27)"><g class="label" style="" transform="translate(0,-12)"><foreignObject width="278.0625" height="24"><div xmlns="http://www.w3.org/1999/xhtml" style="display: table-cell; white-space: nowrap; line-height: 1.5; max-width: 304px; text-align: center;"><span class="nodeLabel markdown-node-label" style=""><p>+ void update(Player&amp; player, float dt)</p></span></div></foreignObject></g><g class="label" style="" transform="translate(0,12)"><foreignObject width="219.65625" height="24"><div xmlns="http://www.w3.org/1999/xhtml" style="display: table-cell; white-space: nowrap; line-height: 1.5; max-width: 251px; text-align: center;"><span class="nodeLabel markdown-node-label" style=""><p>+ sf::Vector2f getSize() : const</p></span></div></foreignObject></g></g><g class="divider" style=""><path d="M-178.90234375 -27 C-59.47329279638856 -26.999666217198584, 59.955758157222874 -26.999332434397168, 178.90234375 -26.999 M-178.90234375 -27 C-54.0804242784385 -26.99965114509722, 70.741495193123 -26.999302290194443, 178.90234375 -26.999" stroke="#9370DB" stroke-width="1.3" fill="none" stroke-dasharray="0 0" style=""/></g><g class="divider" style=""><path d="M-178.90234375 -3 C-39.55934366780585 -2.9996105612784008, 99.7836564143883 -2.9992211225568015, 178.90234375 -2.999 M-178.90234375 -3 C-46.991604479897205 -2.9996313331158633, 84.91913479020559 -2.999262666231727, 178.90234375 -2.999" stroke="#9370DB" stroke-width="1.3" fill="none" stroke-dasharray="0 0" style=""/></g></g></g></g></g><defs><filter id="my-svg-drop-shadow" height="130%" width="130%"><feDropShadow dx="4" dy="4" stdDeviation="0" flood-opacity="0.06" flood-color="#000000"/></filter></defs><defs><filter id="my-svg-drop-shadow-small" height="150%" width="150%"><feDropShadow dx="2" dy="2" stdDeviation="0" flood-opacity="0.06" flood-color="#000000"/></filter></defs></svg>